<svg id="레이어_1" data-name="레이어 1" xmlns="http://www.w3.org/2000/svg" viewBox="0 0 439 102"><defs><style>.cls-1{opacity:0.7;}.cls-2{fill:none;stroke:#727171;stroke-miterlimit:10;}.cls-3{fill:#fff;}.cls-4{fill:#3e3a39;}</style></defs><g class="cls-1"><polygon class="cls-2" points="48.5 32.5 40.5 32.5 38.5 32.5 38.5 29.5 38.5 21.5 32.5 21.5 32.5 16.5 24.5 16.5 22.5 16.5 22.5 13.5 22.5 5.5 16.5 5.5 16.5 0.5 8.5 0.5 0.5 0.5 0.5 8.5 0.5 16.5 0.5 24.5 0.5 32.5 0.5 40.5 0.5 48.5 0.5 56.5 0.5 64.5 0.5 72.5 0.5 80.5 0.5 88.5 0.5 96.5 6.5 96.5 6.5 101.5 14.5 101.5 22.5 101.5 22.5 93.5 22.5 85.5 22.5 77.5 22.5 69.5 22.5 61.5 22.5 53.5 22.5 45.5 22.5 37.5 30.5 37.5 32.5 37.5 32.5 40.5 32.5 48.5 38.5 48.5 38.5 53.5 46.5 53.5 54.5 53.5 54.5 45.5 54.5 37.5 48.5 37.5 48.5 32.5"/><polygon class="cls-2" points="80.5 0.5 72.5 0.5 64.5 0.5 64.5 8.5 64.5 16.5 56.5 16.5 48.5 16.5 48.5 24.5 48.5 32.5 54.5 32.5 54.5 37.5 62.5 37.5 64.5 37.5 64.5 40.5 64.5 48.5 64.5 56.5 64.5 64.5 64.5 72.5 64.5 80.5 64.5 88.5 64.5 96.5 70.5 96.5 70.5 101.5 78.5 101.5 86.5 101.5 86.5 93.5 86.5 85.5 86.5 77.5 86.5 69.5 86.5 61.5 86.5 53.5 86.5 45.5 86.5 37.5 86.5 29.5 86.5 21.5 86.5 13.5 86.5 5.5 80.5 5.5 80.5 0.5"/><polygon class="cls-2" points="176.5 16.5 174.5 16.5 174.5 13.5 174.5 5.5 168.5 5.5 168.5 0.5 160.5 0.5 152.5 0.5 144.5 0.5 136.5 0.5 128.5 0.5 120.5 0.5 112.5 0.5 104.5 0.5 104.5 8.5 104.5 16.5 110.5 16.5 110.5 21.5 118.5 21.5 126.5 21.5 134.5 21.5 142.5 21.5 150.5 21.5 158.5 21.5 160.5 21.5 160.5 24.5 160.5 32.5 166.5 32.5 166.5 37.5 174.5 37.5 182.5 37.5 182.5 29.5 182.5 21.5 176.5 21.5 176.5 16.5"/><polygon class="cls-2" points="104.5 16.5 96.5 16.5 88.5 16.5 88.5 24.5 88.5 32.5 88.5 40.5 88.5 48.5 88.5 56.5 88.5 64.5 88.5 72.5 88.5 80.5 94.5 80.5 94.5 85.5 102.5 85.5 104.5 85.5 104.5 88.5 104.5 96.5 110.5 96.5 110.5 101.5 118.5 101.5 126.5 101.5 134.5 101.5 142.5 101.5 150.5 101.5 158.5 101.5 166.5 101.5 174.5 101.5 174.5 93.5 174.5 85.5 182.5 85.5 182.5 77.5 182.5 69.5 176.5 69.5 176.5 64.5 168.5 64.5 160.5 64.5 160.5 72.5 160.5 80.5 152.5 80.5 144.5 80.5 136.5 80.5 128.5 80.5 120.5 80.5 112.5 80.5 110.5 80.5 110.5 77.5 110.5 69.5 110.5 61.5 110.5 53.5 110.5 45.5 110.5 37.5 110.5 29.5 110.5 21.5 104.5 21.5 104.5 16.5"/><polygon class="cls-2" points="264.5 0.5 256.5 0.5 248.5 0.5 240.5 0.5 232.5 0.5 224.5 0.5 216.5 0.5 208.5 0.5 200.5 0.5 192.5 0.5 184.5 0.5 184.5 8.5 184.5 16.5 190.5 16.5 190.5 21.5 198.5 21.5 206.5 21.5 214.5 21.5 216.5 21.5 216.5 24.5 216.5 32.5 216.5 40.5 216.5 48.5 216.5 56.5 216.5 64.5 216.5 72.5 216.5 80.5 216.5 88.5 216.5 96.5 222.5 96.5 222.5 101.5 230.5 101.5 238.5 101.5 238.5 93.5 238.5 85.5 238.5 77.5 238.5 69.5 238.5 61.5 238.5 53.5 238.5 45.5 238.5 37.5 238.5 29.5 238.5 21.5 246.5 21.5 254.5 21.5 262.5 21.5 270.5 21.5 270.5 13.5 270.5 5.5 264.5 5.5 264.5 0.5"/><polygon class="cls-2" points="344.5 0.5 336.5 0.5 328.5 0.5 320.5 0.5 312.5 0.5 304.5 0.5 296.5 0.5 288.5 0.5 288.5 8.5 288.5 16.5 294.5 16.5 294.5 21.5 302.5 21.5 310.5 21.5 318.5 21.5 326.5 21.5 334.5 21.5 342.5 21.5 350.5 21.5 350.5 13.5 350.5 5.5 344.5 5.5 344.5 0.5"/><polygon class="cls-2" points="328.5 80.5 320.5 80.5 312.5 80.5 304.5 80.5 296.5 80.5 288.5 80.5 280.5 80.5 272.5 80.5 272.5 88.5 272.5 96.5 278.5 96.5 278.5 101.5 286.5 101.5 294.5 101.5 302.5 101.5 310.5 101.5 318.5 101.5 326.5 101.5 334.5 101.5 334.5 93.5 334.5 85.5 328.5 85.5 328.5 80.5"/><polygon class="cls-2" points="288.5 16.5 280.5 16.5 272.5 16.5 272.5 24.5 272.5 32.5 278.5 32.5 278.5 37.5 286.5 37.5 288.5 37.5 288.5 40.5 288.5 48.5 294.5 48.5 294.5 53.5 302.5 53.5 310.5 53.5 318.5 53.5 326.5 53.5 328.5 53.5 328.5 56.5 328.5 64.5 328.5 72.5 328.5 80.5 334.5 80.5 334.5 85.5 342.5 85.5 350.5 85.5 350.5 77.5 350.5 69.5 350.5 61.5 350.5 53.5 344.5 53.5 344.5 48.5 336.5 48.5 334.5 48.5 334.5 45.5 334.5 37.5 328.5 37.5 328.5 32.5 320.5 32.5 312.5 32.5 304.5 32.5 296.5 32.5 294.5 32.5 294.5 29.5 294.5 21.5 288.5 21.5 288.5 16.5"/><polygon class="cls-2" points="416.5 80.5 408.5 80.5 400.5 80.5 392.5 80.5 384.5 80.5 382.5 80.5 382.5 77.5 382.5 69.5 382.5 61.5 382.5 53.5 382.5 45.5 382.5 37.5 382.5 29.5 382.5 21.5 382.5 13.5 382.5 5.5 376.5 5.5 376.5 0.5 368.5 0.5 360.5 0.5 360.5 8.5 360.5 16.5 360.5 24.5 360.5 32.5 360.5 40.5 360.5 48.5 360.5 56.5 360.5 64.5 360.5 72.5 360.5 80.5 366.5 80.5 366.5 85.5 374.5 85.5 376.5 85.5 376.5 88.5 376.5 96.5 382.5 96.5 382.5 101.5 390.5 101.5 398.5 101.5 406.5 101.5 414.5 101.5 422.5 101.5 422.5 93.5 422.5 85.5 416.5 85.5 416.5 80.5"/><polygon class="cls-2" points="432.5 5.5 432.5 0.5 424.5 0.5 416.5 0.5 416.5 8.5 416.5 16.5 416.5 24.5 416.5 32.5 416.5 40.5 416.5 48.5 416.5 56.5 416.5 64.5 416.5 72.5 416.5 80.5 422.5 80.5 422.5 85.5 430.5 85.5 438.5 85.5 438.5 77.5 438.5 69.5 438.5 61.5 438.5 53.5 438.5 45.5 438.5 37.5 438.5 29.5 438.5 21.5 438.5 13.5 438.5 5.5 432.5 5.5"/></g><polygon class="cls-3" points="38.5 37.5 38.5 45.5 38.5 53.5 46.5 53.5 54.5 53.5 54.5 45.5 54.5 37.5 46.5 37.5 38.5 37.5"/><polygon class="cls-3" points="38.5 21.5 30.5 21.5 22.5 21.5 22.5 13.5 22.5 5.5 14.5 5.5 6.5 5.5 6.5 13.5 6.5 21.5 6.5 29.5 6.5 37.5 6.5 45.5 6.5 53.5 6.5 61.5 6.5 69.5 6.5 77.5 6.5 85.5 6.5 93.5 6.5 101.5 14.5 101.5 22.5 101.5 22.5 93.5 22.5 85.5 22.5 77.5 22.5 69.5 22.5 61.5 22.5 53.5 22.5 45.5 22.5 37.5 30.5 37.5 38.5 37.5 38.5 29.5 38.5 21.5"/><polygon class="cls-3" points="70.5 5.5 70.5 13.5 70.5 21.5 62.5 21.5 54.5 21.5 54.5 29.5 54.5 37.5 62.5 37.5 70.5 37.5 70.5 45.5 70.5 53.5 70.5 61.5 70.5 69.5 70.5 77.5 70.5 85.5 70.5 93.5 70.5 101.5 78.5 101.5 86.5 101.5 86.5 93.5 86.5 85.5 86.5 77.5 86.5 69.5 86.5 61.5 86.5 53.5 86.5 45.5 86.5 37.5 86.5 29.5 86.5 21.5 86.5 13.5 86.5 5.5 78.5 5.5 70.5 5.5"/><polygon class="cls-3" points="174.5 21.5 174.5 13.5 174.5 5.5 166.5 5.5 158.5 5.5 150.5 5.5 142.5 5.5 134.5 5.5 126.5 5.5 118.5 5.5 110.5 5.5 110.5 13.5 110.5 21.5 118.5 21.5 126.5 21.5 134.5 21.5 142.5 21.5 150.5 21.5 158.5 21.5 166.5 21.5 166.5 29.5 166.5 37.5 174.5 37.5 182.5 37.5 182.5 29.5 182.5 21.5 174.5 21.5"/><polygon class="cls-3" points="110.5 101.5 118.5 101.5 126.5 101.5 134.5 101.5 142.5 101.5 150.5 101.5 158.5 101.5 166.5 101.5 174.5 101.5 174.5 93.5 174.5 85.5 182.5 85.5 182.5 77.5 182.5 69.5 174.5 69.5 166.5 69.5 166.5 77.5 166.5 85.5 158.5 85.5 150.5 85.5 142.5 85.5 134.5 85.5 126.5 85.5 118.5 85.5 110.5 85.5 110.5 93.5 110.5 101.5"/><polygon class="cls-3" points="94.5 21.5 94.5 29.5 94.5 37.5 94.5 45.5 94.5 53.5 94.5 61.5 94.5 69.5 94.5 77.5 94.5 85.5 102.5 85.5 110.5 85.5 110.5 77.5 110.5 69.5 110.5 61.5 110.5 53.5 110.5 45.5 110.5 37.5 110.5 29.5 110.5 21.5 102.5 21.5 94.5 21.5"/><polygon class="cls-4" points="254.5 5.5 246.5 5.5 238.5 5.5 230.5 5.5 222.5 5.5 214.5 5.5 206.5 5.5 198.5 5.5 190.5 5.5 190.5 13.5 190.5 21.5 198.5 21.5 206.5 21.5 214.5 21.5 222.5 21.5 222.5 29.5 222.5 37.5 222.5 45.5 222.5 53.5 222.5 61.5 222.5 69.5 222.5 77.5 222.5 85.5 222.5 93.5 222.5 101.5 230.5 101.5 238.5 101.5 238.5 93.5 238.5 85.5 238.5 77.5 238.5 69.5 238.5 61.5 238.5 53.5 238.5 45.5 238.5 37.5 238.5 29.5 238.5 21.5 246.5 21.5 254.5 21.5 262.5 21.5 270.5 21.5 270.5 13.5 270.5 5.5 262.5 5.5 254.5 5.5"/><polygon class="cls-4" points="334.5 69.5 334.5 77.5 334.5 85.5 342.5 85.5 350.5 85.5 350.5 77.5 350.5 69.5 350.5 61.5 350.5 53.5 342.5 53.5 334.5 53.5 334.5 61.5 334.5 69.5"/><polygon class="cls-4" points="278.5 21.5 278.5 29.5 278.5 37.5 286.5 37.5 294.5 37.5 294.5 29.5 294.5 21.5 286.5 21.5 278.5 21.5"/><polygon class="cls-4" points="334.5 5.5 326.5 5.5 318.5 5.5 310.5 5.5 302.5 5.5 294.5 5.5 294.5 13.5 294.5 21.5 302.5 21.5 310.5 21.5 318.5 21.5 326.5 21.5 334.5 21.5 342.5 21.5 350.5 21.5 350.5 13.5 350.5 5.5 342.5 5.5 334.5 5.5"/><polygon class="cls-4" points="294.5 53.5 302.5 53.5 310.5 53.5 318.5 53.5 326.5 53.5 334.5 53.5 334.5 45.5 334.5 37.5 326.5 37.5 318.5 37.5 310.5 37.5 302.5 37.5 294.5 37.5 294.5 45.5 294.5 53.5"/><polygon class="cls-4" points="318.5 85.5 310.5 85.5 302.5 85.5 294.5 85.5 286.5 85.5 278.5 85.5 278.5 93.5 278.5 101.5 286.5 101.5 294.5 101.5 302.5 101.5 310.5 101.5 318.5 101.5 326.5 101.5 334.5 101.5 334.5 93.5 334.5 85.5 326.5 85.5 318.5 85.5"/><polygon class="cls-4" points="382.5 69.5 382.5 61.5 382.5 53.5 382.5 45.5 382.5 37.5 382.5 29.5 382.5 21.5 382.5 13.5 382.5 5.5 374.5 5.5 366.5 5.5 366.5 13.5 366.5 21.5 366.5 29.5 366.5 37.5 366.5 45.5 366.5 53.5 366.5 61.5 366.5 69.5 366.5 77.5 366.5 85.5 374.5 85.5 382.5 85.5 382.5 77.5 382.5 69.5"/><polygon class="cls-4" points="430.5 5.5 422.5 5.5 422.5 13.5 422.5 21.5 422.5 29.5 422.5 37.5 422.5 45.5 422.5 53.5 422.5 61.5 422.5 69.5 422.5 77.5 422.5 85.5 430.5 85.5 438.5 85.5 438.5 77.5 438.5 69.5 438.5 61.5 438.5 53.5 438.5 45.5 438.5 37.5 438.5 29.5 438.5 21.5 438.5 13.5 438.5 5.5 430.5 5.5"/><polygon class="cls-4" points="406.5 85.5 398.5 85.5 390.5 85.5 382.5 85.5 382.5 93.5 382.5 101.5 390.5 101.5 398.5 101.5 406.5 101.5 414.5 101.5 422.5 101.5 422.5 93.5 422.5 85.5 414.5 85.5 406.5 85.5"/><polygon class="cls-4" points="32.5 32.5 32.5 40.5 32.5 48.5 40.5 48.5 48.5 48.5 48.5 40.5 48.5 32.5 40.5 32.5 32.5 32.5"/><polygon class="cls-4" points="32.5 16.5 24.5 16.5 16.5 16.5 16.5 8.5 16.5 0.5 8.5 0.5 0.5 0.5 0.5 8.5 0.5 16.5 0.5 24.5 0.5 32.5 0.5 40.5 0.5 48.5 0.5 56.5 0.5 64.5 0.5 72.5 0.5 80.5 0.5 88.5 0.5 96.5 8.5 96.5 16.5 96.5 16.5 88.5 16.5 80.5 16.5 72.5 16.5 64.5 16.5 56.5 16.5 48.5 16.5 40.5 16.5 32.5 24.5 32.5 32.5 32.5 32.5 24.5 32.5 16.5"/><polygon class="cls-4" points="64.5 0.5 64.5 8.5 64.5 16.5 56.5 16.5 48.5 16.5 48.5 24.5 48.5 32.5 56.5 32.5 64.5 32.5 64.5 40.5 64.5 48.5 64.5 56.5 64.5 64.5 64.5 72.5 64.5 80.5 64.5 88.5 64.5 96.5 72.5 96.5 80.5 96.5 80.5 88.5 80.5 80.5 80.5 72.5 80.5 64.5 80.5 56.5 80.5 48.5 80.5 40.5 80.5 32.5 80.5 24.5 80.5 16.5 80.5 8.5 80.5 0.5 72.5 0.5 64.5 0.5"/><polygon class="cls-4" points="168.5 16.5 168.5 8.5 168.5 0.5 160.5 0.5 152.5 0.5 144.5 0.5 136.5 0.5 128.5 0.5 120.5 0.5 112.5 0.5 104.5 0.5 104.5 8.5 104.5 16.5 112.5 16.5 120.5 16.5 128.5 16.5 136.5 16.5 144.5 16.5 152.5 16.5 160.5 16.5 160.5 24.5 160.5 32.5 168.5 32.5 176.5 32.5 176.5 24.5 176.5 16.5 168.5 16.5"/><polygon class="cls-4" points="104.5 96.5 112.5 96.5 120.5 96.5 128.5 96.5 136.5 96.5 144.5 96.5 152.5 96.5 160.5 96.5 168.5 96.5 168.5 88.5 168.5 80.5 176.5 80.5 176.5 72.5 176.5 64.5 168.5 64.5 160.5 64.5 160.5 72.5 160.5 80.5 152.5 80.5 144.5 80.5 136.5 80.5 128.5 80.5 120.5 80.5 112.5 80.5 104.5 80.5 104.5 88.5 104.5 96.5"/><polygon class="cls-4" points="88.5 16.5 88.5 24.5 88.5 32.5 88.5 40.5 88.5 48.5 88.5 56.5 88.5 64.5 88.5 72.5 88.5 80.5 96.5 80.5 104.5 80.5 104.5 72.5 104.5 64.5 104.5 56.5 104.5 48.5 104.5 40.5 104.5 32.5 104.5 24.5 104.5 16.5 96.5 16.5 88.5 16.5"/><polygon class="cls-3" points="248.5 0.5 240.5 0.5 232.5 0.5 224.5 0.5 216.5 0.5 208.5 0.5 200.5 0.5 192.5 0.5 184.5 0.5 184.5 8.5 184.5 16.5 192.5 16.5 200.5 16.5 208.5 16.5 216.5 16.5 216.5 24.5 216.5 32.5 216.5 40.5 216.5 48.5 216.5 56.5 216.5 64.5 216.5 72.5 216.5 80.5 216.5 88.5 216.5 96.5 224.5 96.5 232.5 96.5 232.5 88.5 232.5 80.5 232.5 72.5 232.5 64.5 232.5 56.5 232.5 48.5 232.5 40.5 232.5 32.5 232.5 24.5 232.5 16.5 240.5 16.5 248.5 16.5 256.5 16.5 264.5 16.5 264.5 8.5 264.5 0.5 256.5 0.5 248.5 0.5"/><polygon class="cls-3" points="328.5 0.5 320.5 0.5 312.5 0.5 304.5 0.5 296.5 0.5 288.5 0.5 288.5 8.5 288.5 16.5 296.5 16.5 304.5 16.5 312.5 16.5 320.5 16.5 328.5 16.5 336.5 16.5 344.5 16.5 344.5 8.5 344.5 0.5 336.5 0.5 328.5 0.5"/><polygon class="cls-3" points="272.5 16.5 272.5 24.5 272.5 32.5 280.5 32.5 288.5 32.5 288.5 24.5 288.5 16.5 280.5 16.5 272.5 16.5"/><polygon class="cls-3" points="312.5 80.5 304.5 80.5 296.5 80.5 288.5 80.5 280.5 80.5 272.5 80.5 272.5 88.5 272.5 96.5 280.5 96.5 288.5 96.5 296.5 96.5 304.5 96.5 312.5 96.5 320.5 96.5 328.5 96.5 328.5 88.5 328.5 80.5 320.5 80.5 312.5 80.5"/><polygon class="cls-3" points="328.5 64.5 328.5 72.5 328.5 80.5 336.5 80.5 344.5 80.5 344.5 72.5 344.5 64.5 344.5 56.5 344.5 48.5 336.5 48.5 328.5 48.5 328.5 56.5 328.5 64.5"/><polygon class="cls-3" points="288.5 48.5 296.5 48.5 304.5 48.5 312.5 48.5 320.5 48.5 328.5 48.5 328.5 40.5 328.5 32.5 320.5 32.5 312.5 32.5 304.5 32.5 296.5 32.5 288.5 32.5 288.5 40.5 288.5 48.5"/><polygon class="cls-3" points="376.5 64.5 376.5 56.5 376.5 48.5 376.5 40.5 376.5 32.5 376.5 24.5 376.5 16.5 376.5 8.5 376.5 0.5 368.5 0.5 360.5 0.5 360.5 8.5 360.5 16.5 360.5 24.5 360.5 32.5 360.5 40.5 360.5 48.5 360.5 56.5 360.5 64.5 360.5 72.5 360.5 80.5 368.5 80.5 376.5 80.5 376.5 72.5 376.5 64.5"/><polygon class="cls-3" points="400.5 80.5 392.5 80.5 384.5 80.5 376.5 80.5 376.5 88.5 376.5 96.5 384.5 96.5 392.5 96.5 400.5 96.5 408.5 96.5 416.5 96.5 416.5 88.5 416.5 80.5 408.5 80.5 400.5 80.5"/><polygon class="cls-3" points="424.5 0.5 416.5 0.5 416.5 8.5 416.5 16.5 416.5 24.5 416.5 32.5 416.5 40.5 416.5 48.5 416.5 56.5 416.5 64.5 416.5 72.5 416.5 80.5 424.5 80.5 432.5 80.5 432.5 72.5 432.5 64.5 432.5 56.5 432.5 48.5 432.5 40.5 432.5 32.5 432.5 24.5 432.5 16.5 432.5 8.5 432.5 0.5 424.5 0.5"/></svg>